<svg id="Layer_1" data-name="Layer 1" xmlns="http://www.w3.org/2000/svg" viewBox="0 0 142.67 142.67"><defs><style>.cls-1{fill:#0853fe;}</style></defs><title>quo logo set for jared</title><g id="Group-2-Copy-2"><g id="Shape-Copy-23"><path class="cls-1" d="M57.88,73.78l-17.83,18a3.48,3.48,0,0,1-2.47,1H3.48A3.48,3.48,0,0,1,0,89.31v-36a3.47,3.47,0,0,1,3.48-3.47h34.1a3.51,3.51,0,0,1,2.47,1l17.83,18A3.5,3.5,0,0,1,57.88,73.78Z"/><path class="cls-1" d="M92.79,105.09v34.1a3.48,3.48,0,0,1-3.48,3.48h-36a3.48,3.48,0,0,1-3.47-3.48v-34.1a3.45,3.45,0,0,1,1-2.47l18-17.84a3.46,3.46,0,0,1,4.89,0l18,17.84A3.45,3.45,0,0,1,92.79,105.09Z"/><path class="cls-1" d="M142.67,53.35v36a3.48,3.48,0,0,1-3.48,3.48h-34.1a3.48,3.48,0,0,1-2.47-1l-17.83-18a3.48,3.48,0,0,1,0-4.91l17.83-18a3.51,3.51,0,0,1,2.47-1h34.1A3.47,3.47,0,0,1,142.67,53.35Z"/><path class="cls-1" d="M92.79,3.48V37.57a3.46,3.46,0,0,1-1,2.47l-18,17.84a3.48,3.48,0,0,1-4.89,0L50.91,40a3.46,3.46,0,0,1-1-2.47V3.48A3.47,3.47,0,0,1,53.35,0h36A3.47,3.47,0,0,1,92.79,3.48Z"/></g></g></svg>